<svg width="117" height="24" viewBox="0 0 117 24" fill="none" xmlns="http://www.w3.org/2000/svg">
<path fill-rule="evenodd" clip-rule="evenodd" d="M36.1654 23.8488V0H30.2829V23.8488H36.1654ZM45.069 23.8488V6.04162H39.1859V23.8488H45.069V23.8488ZM45.069 0V4.45179H39.1859V0H45.069V0ZM0.0742188 23.8488H7.38796L19.9481 5.08721C20.425 4.21303 21.2998 4.37157 21.2202 5.32534V23.8481H27.1026V0H16.0534L0.0742188 23.8488Z" fill="#8490A1"/>
<path fill-rule="evenodd" clip-rule="evenodd" d="M9.61377 23.8488H19.3126V9.38046L9.61377 23.8488V23.8488ZM87.6773 23.8488V0H81.7955V23.8488H87.6773ZM96.5809 23.8488V6.04162H90.6984V23.8488H96.5809ZM96.5809 0V4.45179H90.6984V0H96.5809ZM53.4633 23.8475C52.2489 23.8473 51.0843 23.3648 50.2256 22.506C49.367 21.6472 48.8846 20.4825 48.8846 19.2681V2.86195H53.7735V4.24966C53.7735 4.4901 53.8208 4.72818 53.9129 4.95031C54.0049 5.17243 54.1398 5.37425 54.3098 5.54423C54.4799 5.71422 54.6817 5.84904 54.9039 5.94099C55.1261 6.03295 55.3642 6.08023 55.6046 6.08015H59.8543V10.4934L56.0815 10.4536C55.0696 10.4536 54.2504 11.3531 54.2504 12.365V17.2071C54.2504 17.4475 54.2977 17.6856 54.3898 17.9077C54.4818 18.1299 54.6167 18.3317 54.7867 18.5017C54.9568 18.6716 55.1586 18.8065 55.3808 18.8984C55.603 18.9904 55.8411 19.0377 56.0815 19.0376H60.4909V23.8488L53.4633 23.8475V23.8475ZM108.665 5.72327C101.828 5.72327 100.477 8.10771 100.477 9.69817V11.3676H105.405C105.962 9.69817 107.631 8.66481 108.665 8.66481C109.699 8.66481 111.049 8.74377 111.049 10.4934C111.049 12.243 108.824 12.5595 105.882 12.7989C102.869 13.0433 99.4428 14.786 99.4428 18.7609C99.4428 22.7358 103.656 23.8488 106.12 23.8488L115.143 23.8576C115.872 23.8576 116.455 23.3062 116.455 22.5773V9.93693C116.455 8.18793 115.502 5.72327 108.665 5.72327V5.72327ZM107.631 20.3514C106.12 20.3514 105.327 19.1582 105.327 18.284C105.327 17.0119 106.597 15.4221 108.744 15.4221H111.208V20.352H107.631V20.3514ZM70.3483 5.72327C63.5114 5.72327 62.1604 8.10771 62.1604 9.69817V11.3676H67.089C67.6455 9.69817 69.3143 8.66481 70.3483 8.66481C71.381 8.66481 72.7327 8.74377 72.7327 10.4934C72.7327 12.243 70.5075 12.5595 67.5659 12.7989C64.553 13.0433 61.1264 14.786 61.1264 18.7609C61.1264 22.7358 65.3394 23.8488 67.8041 23.8488L76.827 23.8576C77.5559 23.8576 78.1383 23.3062 78.1383 22.5773V9.93693C78.1389 8.18793 77.1851 5.72327 70.3483 5.72327V5.72327ZM69.3143 20.3514C67.8041 20.3514 67.0088 19.1582 67.0088 18.284C67.0088 17.0119 68.2822 15.4221 70.4272 15.4221H72.8919V20.352H69.3143V20.3514Z" fill="#8490A1"/>
</svg>
