<svg width="240" height="80" viewBox="0 0 240 80" fill="none" xmlns="http://www.w3.org/2000/svg">
<path fill-rule="evenodd" clip-rule="evenodd" d="M98.1654 51.8488V28H92.2829V51.8488H98.1654ZM107.069 51.8488V34.0416H101.186V51.8488H107.069V51.8488ZM107.069 28V32.4518H101.186V28H107.069V28ZM62.0742 51.8488H69.388L81.9481 33.0872C82.425 32.213 83.2998 32.3716 83.2202 33.3253V51.8481H89.1026V28H78.0534L62.0742 51.8488Z" fill="#8490A1"/>
<path fill-rule="evenodd" clip-rule="evenodd" d="M71.6138 51.8488H81.3126V37.3805L71.6138 51.8488V51.8488ZM149.677 51.8488V28H143.795V51.8488H149.677ZM158.581 51.8488V34.0416H152.698V51.8488H158.581ZM158.581 28V32.4518H152.698V28H158.581ZM115.463 51.8475C114.249 51.8473 113.084 51.3648 112.226 50.506C111.367 49.6472 110.885 48.4825 110.885 47.2681V30.862H115.773V32.2497C115.773 32.4901 115.821 32.7282 115.913 32.9503C116.005 33.1724 116.14 33.3743 116.31 33.5442C116.48 33.7142 116.682 33.849 116.904 33.941C117.126 34.0329 117.364 34.0802 117.605 34.0801H121.854V38.4934L118.081 38.4536C117.07 38.4536 116.25 39.3531 116.25 40.365V45.2071C116.25 45.4475 116.298 45.6856 116.39 45.9077C116.482 46.1299 116.617 46.3317 116.787 46.5017C116.957 46.6716 117.159 46.8065 117.381 46.8984C117.603 46.9904 117.841 47.0377 118.081 47.0376H122.491V51.8488L115.463 51.8475V51.8475ZM170.665 33.7233C163.828 33.7233 162.477 36.1077 162.477 37.6982V39.3676H167.405C167.962 37.6982 169.631 36.6648 170.665 36.6648C171.699 36.6648 173.049 36.7438 173.049 38.4934C173.049 40.243 170.824 40.5595 167.882 40.7989C164.869 41.0433 161.443 42.786 161.443 46.7609C161.443 50.7358 165.656 51.8488 168.12 51.8488L177.143 51.8576C177.872 51.8576 178.455 51.3062 178.455 50.5773V37.9369C178.455 36.1879 177.502 33.7233 170.665 33.7233V33.7233ZM169.631 48.3514C168.12 48.3514 167.327 47.1582 167.327 46.284C167.327 45.0119 168.597 43.4221 170.744 43.4221H173.208V48.352H169.631V48.3514ZM132.348 33.7233C125.511 33.7233 124.16 36.1077 124.16 37.6982V39.3676H129.089C129.646 37.6982 131.314 36.6648 132.348 36.6648C133.381 36.6648 134.733 36.7438 134.733 38.4934C134.733 40.243 132.507 40.5595 129.566 40.7989C126.553 41.0433 123.126 42.786 123.126 46.7609C123.126 50.7358 127.339 51.8488 129.804 51.8488L138.827 51.8576C139.556 51.8576 140.138 51.3062 140.138 50.5773V37.9369C140.139 36.1879 139.185 33.7233 132.348 33.7233V33.7233ZM131.314 48.3514C129.804 48.3514 129.009 47.1582 129.009 46.284C129.009 45.0119 130.282 43.4221 132.427 43.4221H134.892V48.352H131.314V48.3514Z" fill="#8490A1"/>
</svg>
