<svg width="240" height="80" viewBox="0 0 240 80" fill="none" xmlns="http://www.w3.org/2000/svg">
<path fill-rule="evenodd" clip-rule="evenodd" d="M108.898 33.1602V44.1326C108.898 47.9339 110.454 50.9564 116.587 50.9564H131.706V33.1602H126.004V46.2914H118.056C115.551 46.2914 114.6 45.2556 114.6 43.2681V33.1602H108.898Z" fill="#8490A1"/>
<path d="M114.946 33.1603H119.266V29.0132H114.946V33.1603ZM121.339 33.1603H125.659V29.0132H121.339V33.1603Z" fill="#8490A1"/>
<path fill-rule="evenodd" clip-rule="evenodd" d="M159.006 50.9565V39.9856C159.006 36.1835 157.452 33.1602 151.317 33.1602H135.681V50.9565H141.382V37.8252H149.849C152.355 37.8252 153.305 38.8618 153.305 40.8478V50.9565H159.006ZM167.646 46.2797C167.362 46.2797 167.09 46.1671 166.89 45.9668C166.69 45.7664 166.577 45.4947 166.577 45.2113C166.577 44.928 166.69 44.6562 166.89 44.4559C167.09 44.2555 167.362 44.143 167.646 44.143H177.192V39.9856H167.343C164.289 39.9856 161.815 42.4185 161.815 45.4707C161.815 46.937 162.397 48.3434 163.434 49.3803C164.471 50.4172 165.877 50.9999 167.343 51.0001L184.925 50.9565V39.3369C184.925 37.0908 183.456 33.1602 178.964 33.1602H162.808V37.8252H176.458C178.142 37.8252 179.223 38.4724 179.223 40.8064V46.2915L167.646 46.2797V46.2797ZM100.54 46.2959C100.828 46.2959 101.103 46.1817 101.307 45.9785C101.51 45.7752 101.624 45.4995 101.624 45.2121C101.624 44.9246 101.51 44.6489 101.307 44.4457C101.103 44.2424 100.828 44.1282 100.54 44.1282L90.173 44.1297C88.7188 44.1293 87.3243 43.5514 86.2962 42.5231C85.268 41.4948 84.6903 40.1002 84.6901 38.6461C84.6901 35.6183 87.1016 33.1632 90.1301 33.1632L105.27 33.1602V37.8208H90.9938C90.7112 37.8282 90.4426 37.9456 90.2452 38.1482C90.0479 38.3507 89.9375 38.6223 89.9375 38.905C89.9375 39.1878 90.0479 39.4593 90.2452 39.6619C90.4426 39.8644 90.7112 39.9819 90.9938 39.9893L101.059 39.9878C102.513 39.9878 103.908 40.5654 104.936 41.5937C105.964 42.6219 106.542 44.0165 106.542 45.4707C106.542 46.9248 105.964 48.3194 104.936 49.3476C103.908 50.3759 102.513 50.9535 101.059 50.9535H83.672V46.2908L100.54 46.2959V46.2959ZM67.0844 35.752H75.2921V39.9848H63.6289V44.1319H75.2921V50.9558H81.1666V30.3955H67.2573C57.4951 30.3955 55.0762 36.5293 55.0762 40.5035V50.9565H60.9506V40.3299C60.9506 37.8252 63.3696 35.8385 67.0844 35.752Z" fill="#8490A1"/>
</svg>
