<svg width="130" height="22" viewBox="0 0 130 22" fill="none" xmlns="http://www.w3.org/2000/svg">
<path fill-rule="evenodd" clip-rule="evenodd" d="M53.8984 4.16016V15.1326C53.8984 18.9339 55.4537 21.9564 61.5875 21.9564H76.7062V4.16016H71.0039V17.2914H63.0563C60.5509 17.2914 59.6 16.2556 59.6 14.2681V4.16016H53.8984Z" fill="#8490A1"/>
<path d="M59.9463 4.16025H64.2655V0.0131836H59.9463V4.16025ZM66.3387 4.16025H70.6586V0.0131836H66.3387V4.16025Z" fill="#8490A1"/>
<path fill-rule="evenodd" clip-rule="evenodd" d="M104.006 21.9565V10.9856C104.006 7.18353 102.452 4.16022 96.3173 4.16022H80.6807V21.9565H86.3822V8.82522H94.8485C97.3547 8.82522 98.3048 9.8618 98.3048 11.8478V21.9565H104.006ZM112.646 17.2797C112.362 17.2797 112.09 17.1671 111.89 16.9668C111.69 16.7664 111.577 16.4947 111.577 16.2113C111.577 15.928 111.69 15.6562 111.89 15.4559C112.09 15.2555 112.362 15.143 112.646 15.143H122.192V10.9856H112.343C109.289 10.9856 106.815 13.4185 106.815 16.4707C106.815 17.937 107.397 19.3434 108.434 20.3803C109.471 21.4172 110.877 21.9999 112.343 22.0001L129.925 21.9565V10.3369C129.925 8.09081 128.456 4.16022 123.964 4.16022H107.808V8.82522H121.458C123.142 8.82522 124.223 9.47243 124.223 11.8064V17.2915L112.646 17.2797V17.2797ZM45.5403 17.2959C45.8277 17.2959 46.1034 17.1817 46.3067 16.9785C46.51 16.7752 46.6241 16.4995 46.6241 16.2121C46.6241 15.9246 46.51 15.6489 46.3067 15.4457C46.1034 15.2424 45.8277 15.1282 45.5403 15.1282L35.173 15.1297C33.7188 15.1293 32.3243 14.5514 31.2962 13.5231C30.268 12.4948 29.6903 11.1002 29.6901 9.64606C29.6901 6.61832 32.1016 4.16317 35.1301 4.16317L50.2703 4.16022V8.82078H35.9938C35.7112 8.82816 35.4426 8.94563 35.2452 9.14816C35.0479 9.35069 34.9375 9.62226 34.9375 9.90502C34.9375 10.1878 35.0479 10.4593 35.2452 10.6619C35.4426 10.8644 35.7112 10.9819 35.9938 10.9893L46.0589 10.9878C47.5131 10.9878 48.9077 11.5654 49.9359 12.5937C50.9642 13.6219 51.5418 15.0165 51.5418 16.4707C51.5418 17.9248 50.9642 19.3194 49.9359 20.3476C48.9077 21.3759 47.5131 21.9535 46.0589 21.9535H28.672V17.2908L45.5403 17.2959V17.2959ZM12.0844 6.75205H20.2921V10.9848H8.62891V15.1319H20.2921V21.9558H26.1666V1.39551H12.2573C2.49511 1.39551 0.0761719 7.5293 0.0761719 11.5035V21.9565H5.95064V11.3299C5.95064 8.82522 8.36958 6.83849 12.0844 6.75205Z" fill="#8490A1"/>
</svg>
