<svg width="240" height="80" viewBox="0 0 240 80" fill="none" xmlns="http://www.w3.org/2000/svg">
<path d="M119.562 33.7056H114.861L114.803 33.7142C114.713 33.7276 114.639 33.7926 114.615 33.8808L111.356 45.8217L107.707 33.9249C107.699 33.9004 107.691 33.8771 107.68 33.8551L107.67 33.833C107.633 33.7546 107.555 33.7043 107.469 33.7043H103.68C103.664 33.7043 103.648 33.7056 103.633 33.708L103.571 33.7166C103.5 33.7264 103.441 33.7779 103.421 33.8453L99.7865 45.8192L96.5047 33.9335C96.4974 33.9053 96.4863 33.8771 96.4741 33.8502L96.4545 33.8073C96.4251 33.7436 96.3613 33.7031 96.2915 33.7031H91.2757C91.1923 33.7031 91.1127 33.7436 91.0637 33.8122L91.0392 33.8575C91.0098 33.9102 91.0049 33.9727 91.0245 34.0303L97.1848 52.2075L97.2118 52.2627C97.2498 52.3374 97.3258 52.3852 97.4103 52.3852H101.652L101.683 52.3803C101.784 52.3656 101.869 52.2958 101.9 52.199L105.303 41.8451L108.816 52.2075L108.832 52.2394C108.876 52.3289 108.968 52.3852 109.067 52.3852H113.437L113.47 52.3803C113.569 52.3656 113.653 52.297 113.684 52.2014L119.841 34.0463C119.868 33.9678 119.855 33.8796 119.806 33.811C119.743 33.7448 119.655 33.7056 119.562 33.7056V33.7056Z" fill="#8490A1"/>
<path d="M135.644 34.9839C134.947 34.3822 134.104 33.9104 133.14 33.5808C132.169 33.2499 131.08 33.082 129.901 33.082C128.812 33.082 127.837 33.1556 127.005 33.3002C126.171 33.446 125.432 33.6323 124.811 33.8541C124.159 34.0857 123.612 34.332 123.14 34.609C122.708 34.8602 122.295 35.1236 121.91 35.3945C121.796 35.4766 121.769 35.6371 121.847 35.7511L123.902 38.7988C123.982 38.914 124.138 38.9458 124.255 38.8699C124.815 38.5071 125.487 38.153 126.252 37.8197C127 37.4974 128.019 37.3344 129.277 37.3344C130.392 37.3344 131.305 37.5819 131.99 38.0696C132.662 38.5476 132.988 39.1897 132.988 40.0316V40.2289L131.782 40.1664C131.365 40.1407 130.935 40.1211 130.489 40.1051C130.047 40.0917 129.642 40.0855 129.277 40.0855C128.07 40.0855 126.95 40.2326 125.948 40.5218C124.94 40.8171 124.064 41.2558 123.344 41.8281C122.622 42.4029 122.051 43.1222 121.649 43.9666C121.248 44.8133 121.046 45.7815 121.046 46.8427C121.046 47.8868 121.243 48.8096 121.633 49.5841C122.019 50.3573 122.537 51.0044 123.172 51.5068C123.803 52.0007 124.508 52.3732 125.265 52.6134C126.026 52.8511 126.801 52.9712 127.568 52.9712C128.841 52.9712 130.011 52.7286 131.044 52.2519C131.868 51.872 132.531 51.4431 133.024 50.9737L133.103 52.1489C133.114 52.2837 133.228 52.3891 133.362 52.3891H137.563C137.706 52.3891 137.822 52.2727 137.822 52.1293V39.9152C137.822 38.9287 137.634 38.0035 137.259 37.164C136.88 36.316 136.337 35.5844 135.644 34.9839V34.9839ZM132.987 45.7104C132.987 46.1454 132.876 46.5412 132.65 46.9224C132.414 47.3173 132.109 47.6664 131.749 47.953C131.381 48.2459 130.95 48.4836 130.47 48.6588C129.987 48.8311 129.478 48.919 128.966 48.9186C127.934 48.9186 127.147 48.7115 126.632 48.3047C126.124 47.9015 125.879 47.3586 125.879 46.6454C125.879 45.9493 126.15 45.344 126.706 44.7974C127.259 44.2594 128.255 43.9862 129.666 43.9862C129.949 43.9862 130.292 43.9923 130.691 44.0045C131.091 44.0168 131.471 44.0364 131.83 44.0609C132.207 44.0854 132.592 44.1075 132.987 44.1295V45.7104Z" fill="#8490A1"/>
<path d="M154.158 33.7055C153.794 33.5768 153.433 33.4861 153.085 33.4359C152.71 33.3819 152.3 33.355 151.867 33.355C151.097 33.355 150.401 33.4493 149.798 33.6368C149.184 33.8305 148.667 34.0535 148.217 34.3182C147.758 34.5878 147.357 34.8868 147.027 35.2066C146.87 35.3556 146.718 35.5093 146.57 35.6674L146.483 33.9518C146.48 33.8853 146.451 33.8227 146.403 33.7768C146.355 33.7309 146.291 33.7054 146.225 33.7055H141.911C141.768 33.7055 141.652 33.8219 141.652 33.964V52.1265C141.652 52.2699 141.769 52.3863 141.912 52.3863H146.419C146.563 52.3863 146.678 52.2699 146.678 52.1278V42.3253C146.678 41.682 146.796 41.0974 147.026 40.5889C147.26 40.0729 147.577 39.6244 147.971 39.2556C148.363 38.8867 148.835 38.6024 149.374 38.4088C149.917 38.209 150.494 38.1085 151.088 38.1085C151.504 38.1085 151.878 38.1343 152.201 38.1857C152.49 38.2299 152.773 38.3083 153.066 38.4272C153.137 38.4541 153.215 38.4492 153.282 38.4149C153.353 38.3671 153.403 38.2936 153.42 38.2102L154.326 34.0069C154.354 33.8783 154.282 33.7484 154.158 33.7055V33.7055Z" fill="#8490A1"/>
<path d="M173.946 43.7668C173.946 42.458 173.787 41.1578 173.474 39.9017C173.159 38.6383 172.637 37.4876 171.924 36.4827C171.208 35.4741 170.246 34.6469 169.065 34.022C167.882 33.3982 166.429 33.082 164.742 33.082C163.342 33.082 162.049 33.3369 160.901 33.8406C159.747 34.3467 158.742 35.044 157.915 35.9128C157.087 36.7768 156.429 37.8148 155.961 38.9985C155.499 40.1762 155.265 41.4666 155.265 42.833C155.265 44.3281 155.499 45.7153 155.959 46.9554C156.424 48.1993 157.095 49.2777 157.955 50.1612C158.812 51.0472 159.864 51.7519 161.079 52.2531C162.294 52.7555 163.658 53.0104 165.133 53.0104C166.567 53.0104 167.824 52.8499 168.872 52.5325C169.903 52.22 170.77 51.8597 171.449 51.4602C172.133 51.0571 172.644 50.6845 173.009 50.3193C173.287 50.0436 173.48 49.85 173.586 49.7434L173.659 49.649C173.725 49.5632 173.721 49.4419 173.649 49.361L171.197 46.6086C171.156 46.5633 171.1 46.4898 171.04 46.4738C171.026 46.4697 171.011 46.4684 170.997 46.4701C170.982 46.4718 170.968 46.4764 170.955 46.4836L170.893 46.5302L170.827 46.5952C170.676 46.7434 170.462 46.9297 170.188 47.1564C169.905 47.3917 169.535 47.6172 169.088 47.8267C168.637 48.04 168.095 48.2262 167.433 48.3978C166.788 48.562 166.027 48.6441 165.172 48.6441C164.603 48.6441 164.018 48.5424 163.435 48.3414C162.858 48.1466 162.331 47.8598 161.869 47.4861C161.414 47.1175 161.035 46.6633 160.755 46.1491C160.508 45.6993 160.37 45.1945 160.34 44.6455H173.948V43.7668H173.946ZM160.299 40.9017C160.326 40.5377 160.423 40.1713 160.586 39.8073C160.778 39.3686 161.062 38.9655 161.43 38.6113C161.798 38.2584 162.266 37.9606 162.823 37.7241C163.377 37.4888 164.022 37.3711 164.742 37.3711C165.408 37.3711 166.006 37.4888 166.52 37.7228C167.035 37.9569 167.464 38.2535 167.793 38.6027C168.122 38.9581 168.376 39.3613 168.547 39.7988C168.69 40.1676 168.774 40.5365 168.797 40.9017H160.299Z" fill="#8490A1"/>
<path d="M89.9756 41.7153C90.2145 41.7042 90.3775 41.4665 90.3003 41.2386C89.9033 40.0548 88.88 37.0242 88.88 37.0242C88.8469 36.925 88.744 36.8625 88.6398 36.8759C87.5896 37.0169 86.7109 37.2754 85.9438 37.5904C85.8053 37.6468 85.6472 37.5769 85.5945 37.4372L81.3299 26.1973C81.3226 26.1765 81.3128 26.1569 81.3018 26.1373C81.2786 26.0958 81.2449 26.0612 81.2039 26.0371C81.163 26.0129 81.1164 26.0001 81.0689 26H76.107C76.0862 26 76.0654 26.0012 76.0445 26.0049H76.0421C75.9453 26.0184 75.8644 26.0833 75.8301 26.1752L66.024 52.0361C65.9946 52.1157 66.0056 52.2052 66.0546 52.2751L66.0742 52.2971C66.1245 52.3547 66.198 52.3878 66.274 52.3878H71.2824C71.3032 52.3878 71.3241 52.3866 71.3449 52.3829H71.3461C71.4454 52.3682 71.5287 52.2996 71.5606 52.2052L73.7517 45.812L73.9919 45.1C74.0032 45.066 74.0213 45.0346 74.0451 45.0077C74.0688 44.9809 74.0978 44.9591 74.1302 44.9438C74.1626 44.9284 74.1978 44.9198 74.2336 44.9184C74.2695 44.9171 74.3052 44.923 74.3387 44.9358C75.4661 45.3635 76.8374 45.6625 78.5984 45.6625C80.2013 45.6625 81.4795 45.4137 82.5456 45.0473C82.6841 44.9995 82.8348 45.0743 82.8826 45.2127L83.0897 45.812L85.2735 52.1831C85.2808 52.2027 85.2882 52.2224 85.298 52.2407V52.242C85.3433 52.3314 85.4352 52.3878 85.5357 52.3878H90.8873C90.9731 52.3878 91.0515 52.3461 91.1005 52.2763L91.114 52.2505C91.1508 52.1819 91.1557 52.1023 91.1275 52.03L87.5369 42.5645C87.4866 42.4322 87.5479 42.2827 87.679 42.2251C88.3126 41.9457 89.0221 41.7606 89.9756 41.7153V41.7153ZM75.7578 39.8955L78.167 32.8871C78.2504 32.6457 78.591 32.6469 78.6732 32.8883L81.1008 40.0315C81.1486 40.17 81.0751 40.3219 80.9366 40.3697C80.3042 40.5879 79.5714 40.7141 78.5996 40.7141C77.4403 40.7141 76.6217 40.5303 75.9073 40.2288C75.8444 40.203 75.7937 40.1541 75.7659 40.092C75.7381 40.03 75.7352 39.9596 75.7578 39.8955V39.8955Z" fill="#8490A1"/>
</svg>
