<svg width="108" height="28" viewBox="0 0 108 28" fill="none" xmlns="http://www.w3.org/2000/svg">
<path d="M53.5617 7.70558H48.8608L48.8032 7.71415C48.7126 7.72763 48.639 7.79258 48.6145 7.88082L45.356 19.8217L41.7066 7.92493C41.6993 7.90042 41.6907 7.87714 41.6797 7.85508L41.6699 7.83302C41.6331 7.75459 41.5547 7.70435 41.4689 7.70435H37.6798C37.6638 7.70435 37.6479 7.70558 37.6332 7.70803L37.5707 7.7166C37.4996 7.72641 37.4408 7.77788 37.4212 7.84528L33.7865 19.8192L30.5047 7.93351C30.4974 7.90533 30.4863 7.87714 30.4741 7.85018L30.4545 7.80729C30.4251 7.74356 30.3613 7.70312 30.2915 7.70312H25.2757C25.1923 7.70312 25.1127 7.74357 25.0637 7.81219L25.0392 7.85753C25.0098 7.91023 25.0049 7.97273 25.0245 8.03032L31.1848 26.2075L31.2118 26.2627C31.2498 26.3374 31.3258 26.3852 31.4103 26.3852H35.6516L35.6835 26.3803C35.784 26.3656 35.8685 26.2958 35.9004 26.199L39.3035 15.8451L42.8157 26.2075L42.8316 26.2394C42.8757 26.3289 42.9676 26.3852 43.0669 26.3852H47.4369L47.4699 26.3803C47.5692 26.3656 47.6525 26.297 47.6844 26.2014L53.8411 8.04625C53.8681 7.96782 53.8546 7.87959 53.8056 7.81096C53.7431 7.74479 53.6548 7.70558 53.5617 7.70558V7.70558Z" fill="#8490A1"/>
<path d="M69.6436 8.98394C68.9475 8.38224 68.1044 7.91044 67.1399 7.58079C66.1694 7.24992 65.0799 7.08203 63.9011 7.08203C62.8116 7.08203 61.8374 7.15556 61.0053 7.30016C60.1708 7.44599 59.4318 7.63226 58.8105 7.85407C58.1586 8.08568 57.612 8.332 57.1402 8.60895C56.7076 8.86017 56.2946 9.12364 55.9098 9.39447C55.7959 9.47658 55.7689 9.63711 55.8473 9.75108L57.9024 12.7988C57.9821 12.914 58.1377 12.9458 58.2554 12.8699C58.8154 12.5071 59.487 12.153 60.2516 11.8197C61.0004 11.4974 62.0188 11.3344 63.2773 11.3344C64.3925 11.3344 65.3054 11.5819 65.9905 12.0696C66.662 12.5476 66.988 13.1897 66.988 14.0316V14.2289L65.7821 14.1664C65.3655 14.1407 64.9353 14.1211 64.4893 14.1051C64.0469 14.0917 63.6425 14.0855 63.2773 14.0855C62.0702 14.0855 60.9502 14.2326 59.9477 14.5218C58.9404 14.8171 58.0642 15.2558 57.3436 15.8281C56.6218 16.4029 56.0508 17.1222 55.6488 17.9666C55.2481 18.8133 55.0459 19.7815 55.0459 20.8427C55.0459 21.8868 55.2432 22.8096 55.6329 23.5841C56.0189 24.3573 56.5373 25.0044 57.1721 25.5068C57.8032 26.0007 58.5078 26.3732 59.2651 26.6134C60.0262 26.8511 60.8006 26.9712 61.5678 26.9712C62.841 26.9712 64.0113 26.7286 65.0444 26.2519C65.8679 25.872 66.5309 25.4431 67.0235 24.9737L67.1032 26.1489C67.1142 26.2837 67.2282 26.3891 67.3617 26.3891H71.5626C71.706 26.3891 71.8224 26.2727 71.8224 26.1293V13.9152C71.8224 12.9287 71.6337 12.0035 71.2587 11.164C70.88 10.316 70.3372 9.58442 69.6436 8.98394V8.98394ZM66.9868 19.7104C66.9868 20.1454 66.8765 20.5412 66.6498 20.9224C66.4139 21.3173 66.1088 21.6664 65.749 21.953C65.3814 22.2459 64.95 22.4836 64.4697 22.6588C63.9871 22.8311 63.4784 22.919 62.966 22.9186C61.9342 22.9186 61.1475 22.7115 60.6315 22.3047C60.1242 21.9015 59.8791 21.3586 59.8791 20.6454C59.8791 19.9493 60.1499 19.344 60.7063 18.7974C61.259 18.2594 62.2553 17.9862 63.6658 17.9862C63.9489 17.9862 64.292 17.9923 64.6915 18.0045C65.091 18.0168 65.4709 18.0364 65.8299 18.0609C66.2074 18.0854 66.5922 18.1075 66.9868 18.1295V19.7104Z" fill="#8490A1"/>
<path d="M88.1581 7.70546C87.7942 7.57679 87.4327 7.4861 87.0846 7.43586C86.7097 7.38194 86.3003 7.35498 85.8665 7.35498C85.0969 7.35498 84.4009 7.44934 83.798 7.63684C83.184 7.83046 82.6669 8.05349 82.2171 8.31819C81.7576 8.58779 81.3568 8.8868 81.0272 9.20665C80.8702 9.3556 80.7178 9.50926 80.5701 9.66742L80.4831 7.95178C80.4799 7.88535 80.4513 7.82268 80.4032 7.77681C80.355 7.73094 80.291 7.70539 80.2245 7.70546H75.9109C75.7675 7.70546 75.6523 7.82188 75.6523 7.96403V26.1265C75.6523 26.2699 75.7688 26.3863 75.9121 26.3863H80.4194C80.5628 26.3863 80.6779 26.2699 80.6779 26.1278V16.3253C80.6779 15.682 80.7956 15.0974 81.026 14.5889C81.26 14.0729 81.5774 13.6244 81.9708 13.2556C82.363 12.8867 82.8348 12.6024 83.374 12.4088C83.9168 12.209 84.494 12.1085 85.0884 12.1085C85.5038 12.1085 85.8776 12.1343 86.2011 12.1857C86.4903 12.2299 86.7734 12.3083 87.0663 12.4272C87.1373 12.4541 87.2145 12.4492 87.2819 12.4149C87.353 12.3671 87.4033 12.2936 87.4204 12.2102L88.326 8.00692C88.3542 7.87825 88.2819 7.74835 88.1581 7.70546V7.70546Z" fill="#8490A1"/>
<path d="M107.946 17.7668C107.946 16.458 107.787 15.1578 107.474 13.9017C107.159 12.6383 106.637 11.4876 105.924 10.4827C105.208 9.47413 104.246 8.64694 103.065 8.02196C101.882 7.3982 100.429 7.08203 98.7423 7.08203C97.3416 7.08203 96.0488 7.33693 94.9005 7.84059C93.7474 8.3467 92.7425 9.04399 91.9153 9.91284C91.0869 10.7768 90.4288 11.8148 89.9607 12.9985C89.4987 14.1762 89.2646 15.4666 89.2646 16.833C89.2646 18.3281 89.4987 19.7153 89.9595 20.9554C90.4239 22.1993 91.0955 23.2777 91.9545 24.1612C92.8124 25.0472 93.8638 25.7519 95.0794 26.2531C96.2939 26.7555 97.6578 27.0104 99.1333 27.0104C100.567 27.0104 101.824 26.8499 102.872 26.5325C103.903 26.22 104.77 25.8597 105.449 25.4602C106.133 25.0571 106.644 24.6845 107.009 24.3193C107.287 24.0436 107.48 23.85 107.586 23.7434L107.659 23.649C107.725 23.5632 107.721 23.4419 107.649 23.361L105.197 20.6086C105.156 20.5633 105.1 20.4898 105.04 20.4738C105.026 20.4697 105.011 20.4684 104.997 20.4701C104.982 20.4718 104.968 20.4764 104.955 20.4836L104.893 20.5302L104.827 20.5952C104.676 20.7434 104.462 20.9297 104.188 21.1564C103.905 21.3917 103.535 21.6172 103.088 21.8267C102.637 22.04 102.095 22.2262 101.433 22.3978C100.788 22.562 100.027 22.6441 99.1725 22.6441C98.6026 22.6441 98.0181 22.5424 97.4348 22.3414C96.8576 22.1466 96.3306 21.8598 95.8686 21.4861C95.4135 21.1175 95.035 20.6633 94.7547 20.1491C94.5084 19.6993 94.3699 19.1945 94.3405 18.6455H107.948V17.7668H107.946ZM94.2988 14.9017C94.3258 14.5377 94.4226 14.1713 94.5856 13.8073C94.778 13.3686 95.0623 12.9655 95.4299 12.6113C95.7976 12.2584 96.2657 11.9606 96.8233 11.7241C97.3772 11.4888 98.0218 11.3711 98.7423 11.3711C99.4078 11.3711 100.006 11.4888 100.52 11.7228C101.035 11.9569 101.464 12.2535 101.793 12.6027C102.122 12.9581 102.376 13.3613 102.547 13.7988C102.69 14.1676 102.774 14.5365 102.797 14.9017H94.2988Z" fill="#8490A1"/>
<path d="M23.9756 15.7153C24.2145 15.7042 24.3775 15.4665 24.3003 15.2386C23.9033 14.0548 22.88 11.0242 22.88 11.0242C22.8469 10.925 22.744 10.8625 22.6398 10.8759C21.5896 11.0169 20.7109 11.2754 19.9438 11.5904C19.8053 11.6468 19.6472 11.5769 19.5945 11.4372L15.3299 0.197299C15.3226 0.176466 15.3128 0.156859 15.3018 0.137251C15.2786 0.0957623 15.2449 0.0611801 15.2039 0.0370585C15.163 0.0129369 15.1164 0.000146 15.0689 0H10.107C10.0862 0 10.0654 0.00122545 10.0445 0.00490183H10.0421C9.94528 0.0183819 9.8644 0.0833311 9.83009 0.17524L0.0239747 26.0361C-0.00543629 26.1157 0.00559283 26.2052 0.0546112 26.2751L0.0742185 26.2971C0.124462 26.3547 0.19799 26.3878 0.273968 26.3878H5.28242C5.30325 26.3878 5.32408 26.3866 5.34491 26.3829H5.34614C5.4454 26.3682 5.52873 26.2996 5.56059 26.2052L7.75171 19.812L7.9919 19.1C8.00321 19.066 8.02129 19.0346 8.04506 19.0077C8.06883 18.9809 8.0978 18.9591 8.13021 18.9438C8.16262 18.9284 8.19781 18.9198 8.23364 18.9184C8.26948 18.9171 8.30522 18.923 8.33871 18.9358C9.46613 19.3635 10.8374 19.6625 12.5984 19.6625C14.2013 19.6625 15.4795 19.4137 16.5456 19.0473C16.6841 18.9995 16.8348 19.0743 16.8826 19.2127L17.0897 19.812L19.2735 26.1831C19.2808 26.2027 19.2882 26.2224 19.298 26.2407V26.242C19.3433 26.3314 19.4352 26.3878 19.5357 26.3878H24.8873C24.9731 26.3878 25.0515 26.3461 25.1005 26.2763L25.114 26.2505C25.1508 26.1819 25.1557 26.1023 25.1275 26.03L21.5369 16.5645C21.4866 16.4322 21.5479 16.2827 21.679 16.2251C22.3126 15.9457 23.0221 15.7606 23.9756 15.7153V15.7153ZM9.75779 13.8955L12.167 6.88708C12.2504 6.64566 12.591 6.64689 12.6732 6.8883L15.1008 14.0315C15.1486 14.17 15.0751 14.3219 14.9366 14.3697C14.3042 14.5879 13.5714 14.7141 12.5996 14.7141C11.4403 14.7141 10.6217 14.5303 9.90729 14.2288C9.84436 14.203 9.79374 14.1541 9.76591 14.092C9.73808 14.03 9.73517 13.9596 9.75779 13.8955V13.8955Z" fill="#8490A1"/>
</svg>
