<svg width="240" height="80" viewBox="0 0 240 80" fill="none" xmlns="http://www.w3.org/2000/svg">
<path fill-rule="evenodd" clip-rule="evenodd" d="M106.943 47.2538L99.4449 28.177H92.8972L85.3997 47.2544H83.0501V52H93.6017V47.2544H90.9493L92.1469 44.0767H100.196L101.394 47.2544H98.5422V52H109.093V47.2544H106.943V47.2538V47.2538ZM93.8549 39.5415L96.1714 33.3931L98.4878 39.5415H93.8549V39.5415ZM172.289 42.3685L179.596 32.3236H182V28H170.999V32.3236H173.51L169.406 37.9649L165.301 32.3236H167.849V28H156.849V32.3236H159.215L166.523 42.3685L166.524 42.3671V47.2112H163.811V51.9554H174.78V47.2112H172.287V42.3671L172.289 42.3685ZM151.175 44.3955V47.1892H146.045V32.3602H148.593V28.0366H137.695V32.3602H140.283V47.1892H137.684V51.9334H156.302V44.3955H151.175V44.3955ZM127.377 44.4441V47.2385H122.248V32.4095H124.794V28.0858H113.898V32.4095H116.485V47.2385H113.885V51.9827H132.504V44.4441H127.377ZM75.2107 39.1282C77.3276 38.0541 78.6466 36.429 78.6466 34.0799C78.6466 31.0126 76.3613 28.1051 70.7905 28.1051H60.8096V28.1231H58.002V32.3416H60.8096V47.2105H58V51.9547H65.1986V51.9328H72.0419C76.7417 51.9328 79.6719 48.5155 79.6719 44.9452C79.6726 42.0264 76.8703 39.5701 75.2107 39.1282V39.1282ZM66.5613 32.3676H69.5723C71.67 32.3676 73.4178 32.852 73.3542 34.8831C73.2998 36.5941 71.67 37.4685 69.5723 37.3634H66.5613V32.3676V32.3676ZM69.8096 47.2019H66.5613V41.6258H70.5877C72.6178 41.6258 73.897 42.5681 73.897 44.315C73.8963 47.4361 71.0212 47.2205 69.8096 47.2019V47.2019Z" fill="#8490A1"/>
</svg>
