<svg width="240" height="80" viewBox="0 0 240 80" fill="none" xmlns="http://www.w3.org/2000/svg">
<path fill-rule="evenodd" clip-rule="evenodd" d="M182.795 45.5139V38.9996H176.269V45.5139H182.795ZM182.795 53V46.4865H176.269V53H182.795ZM196 45.5139V38.9996H189.473V45.5139H196ZM196 53V46.4865H189.473V53H196ZM189.473 31.5152C191.203 31.5154 192.863 32.2015 194.087 33.4227C195.31 34.6438 195.998 36.3 195.998 38.0269H176.269V31.5135L189.473 31.5152V31.5152ZM174.692 45.5139V38.9996H168.165V45.5139H174.692ZM161.263 45.5139V38.9996H154.736V45.5139H161.263ZM154.738 38.026C154.738 36.2991 155.426 34.6429 156.649 33.4218C157.873 32.2007 159.533 31.5145 161.263 31.5143H168.165C169.022 31.5142 169.87 31.6826 170.662 32.0098C171.454 32.337 172.173 32.8166 172.779 33.4213C173.385 34.026 173.866 34.7439 174.194 35.534C174.522 36.3241 174.69 37.1709 174.69 38.026H154.738V38.026ZM154.738 46.4865C154.738 48.2135 155.426 49.8696 156.649 51.0908C157.873 52.3119 159.533 52.998 161.263 52.9983H168.165C169.896 52.9983 171.555 52.3122 172.779 51.091C174.003 49.8699 174.69 48.2136 174.69 46.4865H154.738V46.4865ZM147.459 45.5139V38.9996H140.932V45.5139H147.459ZM147.459 53V46.4865H140.932V53H147.459ZM92.9156 52.9983C91.1851 52.998 89.5255 52.3119 88.3019 51.0907C87.0784 49.8696 86.391 48.2134 86.391 46.4865H106.345V53L92.9156 52.9983ZM92.9156 45.5139V38.9996H86.3892V45.5139H92.9156ZM106.345 45.5139V38.9996H99.8182V45.5139H106.345ZM84.2132 38.026V31.5135H77.686V38.026H84.2132ZM84.2132 45.5139V38.9996H77.686V45.5139H84.2132ZM84.2132 53V46.4865H77.686V53H84.2132ZM75.5108 38.026V31.5135H68.9836V38.026H75.5108ZM75.5108 45.5139V38.9996H68.9836V45.5139H75.5108ZM44 31.5135H53.4531L60.1308 38.026H50.7521L44 31.5135ZM51.7277 38.9996H61.1807L67.8576 45.5139H58.4797L51.7277 38.9996ZM147.459 36.3759V31.5126H140.932V38.026H153.836V31.5143C150.805 31.5152 148.209 33.5805 147.459 36.3759V36.3759ZM99.8182 31.5143L92.9156 31.5152C92.0587 31.5152 91.2102 31.6836 90.4185 32.0109C89.6269 32.3381 88.9076 32.8178 88.3017 33.4225C87.6958 34.0272 87.2152 34.745 86.8874 35.535C86.5595 36.3251 86.3909 37.1718 86.391 38.0269H106.345V25H99.8182V31.5143ZM59.3801 46.4865L66.1321 53H75.5108V46.4865H59.3801ZM117.374 38.9996H132.453L128.852 42.444L132.004 45.5139H117.374V38.9996ZM139.656 53L132.905 46.4865H117.374V53H123.901V46.9215L130.204 53H139.656ZM130.653 31.5135L123.901 38.026H133.43L140.031 31.5135H130.653ZM117.374 31.5135V38.026H123.901V31.5135H117.374ZM114.973 53V46.4865H108.446V53H114.973ZM114.973 38.026V31.5135H108.446V38.026H114.973ZM114.973 45.5139V38.9996H108.446V45.5139H114.973Z" fill="#8490A1"/>
</svg>
