<svg width="152" height="28" viewBox="0 0 152 28" fill="none" xmlns="http://www.w3.org/2000/svg">
<path fill-rule="evenodd" clip-rule="evenodd" d="M138.795 20.5139V13.9996H132.269V20.5139H138.795ZM138.795 28V21.4865H132.269V28H138.795ZM152 20.5139V13.9996H145.473V20.5139H152ZM152 28V21.4865H145.473V28H152ZM145.473 6.51518C147.203 6.51541 148.863 7.20154 150.087 8.42268C151.31 9.64382 151.998 11.3 151.998 13.0269H132.269V6.51346L145.473 6.51518V6.51518ZM130.692 20.5139V13.9996H124.165V20.5139H130.692ZM117.263 20.5139V13.9996H110.736V20.5139H117.263ZM110.738 13.026C110.738 11.2991 111.426 9.64295 112.649 8.42181C113.873 7.20067 115.533 6.51455 117.263 6.51432H124.165C125.022 6.51421 125.87 6.68256 126.662 7.00976C127.454 7.33697 128.173 7.81662 128.779 8.42131C129.385 9.026 129.866 9.74389 130.194 10.534C130.522 11.3241 130.69 12.1709 130.69 13.026H110.738V13.026ZM110.738 21.4865C110.738 23.2135 111.426 24.8696 112.649 26.0908C113.873 27.3119 115.533 27.998 117.263 27.9983H124.165C125.896 27.9983 127.555 27.3122 128.779 26.091C130.003 24.8699 130.69 23.2136 130.69 21.4865H110.738V21.4865ZM103.459 20.5139V13.9996H96.9317V20.5139H103.459ZM103.459 28V21.4865H96.9317V28H103.459ZM48.9156 27.9983C47.1851 27.998 45.5255 27.3119 44.3019 26.0907C43.0784 24.8696 42.391 23.2134 42.391 21.4865H62.3454V28L48.9156 27.9983ZM48.9156 20.5139V13.9996H42.3892V20.5139H48.9156ZM62.3454 20.5139V13.9996H55.8182V20.5139H62.3454ZM40.2132 13.026V6.51346H33.686V13.026H40.2132ZM40.2132 20.5139V13.9996H33.686V20.5139H40.2132ZM40.2132 28V21.4865H33.686V28H40.2132ZM31.5108 13.026V6.51346H24.9836V13.026H31.5108ZM31.5108 20.5139V13.9996H24.9836V20.5139H31.5108ZM0 6.51346H9.45308L16.1308 13.026H6.75208L0 6.51346ZM7.72766 13.9996H17.1807L23.8576 20.5139H14.4797L7.72766 13.9996ZM103.459 11.3759V6.5126H96.9317V13.026H109.836V6.51432C106.805 6.51518 104.209 8.58046 103.459 11.3759V11.3759ZM55.8182 6.51432L48.9156 6.51518C48.0587 6.51518 47.2102 6.68362 46.4185 7.01088C45.6269 7.33813 44.9076 7.81779 44.3017 8.42248C43.6958 9.02716 43.2152 9.74501 42.8874 10.535C42.5595 11.3251 42.3909 12.1718 42.391 13.0269H62.3454V0H55.8182V6.51432ZM15.3801 21.4865L22.1321 28H31.5108V21.4865H15.3801ZM73.3742 13.9996H88.4533L84.852 17.444L88.0045 20.5139H73.3742V13.9996ZM95.656 28L88.9048 21.4865H73.3742V28H79.9015V21.9215L86.2038 28H95.656ZM86.6527 6.51346L79.9015 13.026H89.4298L96.0314 6.51346H86.6527ZM73.3742 6.51346V13.026H79.9015V6.51346H73.3742ZM70.9734 28V21.4865H64.4461V28H70.9734ZM70.9734 13.026V6.51346H64.4461V13.026H70.9734ZM70.9734 20.5139V13.9996H64.4461V20.5139H70.9734Z" fill="#8490A1"/>
</svg>
