<svg width="40" height="40" viewBox="0 0 40 40" fill="none" xmlns="http://www.w3.org/2000/svg">
<path fill-rule="evenodd" clip-rule="evenodd" d="M20.0001 25.1429C24.734 25.1429 28.5716 21.3053 28.5716 16.5714C28.5716 11.8376 24.734 8 20.0001 8C15.2663 8 11.4287 11.8376 11.4287 16.5714C11.4287 21.3053 15.2663 25.1429 20.0001 25.1429ZM20.0001 20.4286C17.8699 20.4286 16.143 18.7017 16.143 16.5714C16.143 14.4412 17.8699 12.7143 20.0001 12.7143C22.1304 12.7143 23.8573 14.4412 23.8573 16.5714C23.8573 18.7017 22.1304 20.4286 20.0001 20.4286ZM26.0611 30.4895C27.6685 28.882 28.5716 26.7019 28.5716 24.4286L23.8573 24.4286C23.8573 25.4515 23.4509 26.4326 22.7276 27.156C22.0042 27.8793 21.0231 28.2857 20.0001 28.2857C18.9772 28.2857 17.9961 27.8793 17.2727 27.156C16.5494 26.4326 16.143 25.4515 16.143 24.4286L11.4287 24.4286C11.4287 26.7019 12.3318 28.882 13.9392 30.4895C15.5467 32.0969 17.7269 33 20.0001 33C22.2734 33 24.4536 32.0969 26.0611 30.4895Z" fill="#1777F7"/>
</svg>
