<svg width="213" height="64" viewBox="0 0 213 64" fill="none" xmlns="http://www.w3.org/2000/svg">
<path fill-rule="evenodd" clip-rule="evenodd" d="M32 39C38.6274 39 44 33.6274 44 27C44 20.3726 38.6274 15 32 15C25.3726 15 20 20.3726 20 27C20 33.6274 25.3726 39 32 39ZM32 32.4C29.0177 32.4 26.6 29.9823 26.6 27C26.6 24.0177 29.0177 21.6 32 21.6C34.9823 21.6 37.4 24.0177 37.4 27C37.4 29.9823 34.9823 32.4 32 32.4ZM40.4853 46.4853C42.7357 44.2348 44 41.1826 44 38H37.4C37.4 39.4322 36.8311 40.8057 35.8184 41.8184C34.8057 42.8311 33.4322 43.4 32 43.4C30.5678 43.4 29.1943 42.8311 28.1816 41.8184C27.1689 40.8057 26.6 39.4322 26.6 38L20 38C20 41.1826 21.2643 44.2348 23.5147 46.4853C25.7652 48.7357 28.8174 50 32 50C35.1826 50 38.2348 48.7357 40.4853 46.4853Z" fill="#1777F7"/>
<path d="M88.616 42.288C87.24 42.288 86.016 42 84.944 41.424C83.888 40.848 83.056 40.056 82.448 39.048C81.84 38.04 81.536 36.896 81.536 35.616V24.12H84.8V35.448C84.8 36.184 84.96 36.848 85.28 37.44C85.616 38.032 86.072 38.496 86.648 38.832C87.224 39.152 87.88 39.312 88.616 39.312C89.368 39.312 90.024 39.152 90.584 38.832C91.16 38.496 91.608 38.032 91.928 37.44C92.264 36.848 92.432 36.184 92.432 35.448V24.12H95.696V35.616C95.696 36.896 95.392 38.04 94.784 39.048C94.176 40.056 93.336 40.848 92.264 41.424C91.208 42 89.992 42.288 88.616 42.288ZM107.763 42.288C106.451 42.288 105.227 42.056 104.091 41.592C102.955 41.128 101.963 40.48 101.115 39.648C100.267 38.816 99.6026 37.84 99.1226 36.72C98.6586 35.584 98.4266 34.36 98.4266 33.048C98.4266 31.72 98.6586 30.496 99.1226 29.376C99.5866 28.256 100.243 27.28 101.091 26.448C101.939 25.616 102.931 24.976 104.067 24.528C105.203 24.064 106.435 23.832 107.763 23.832C109.091 23.832 110.323 24.064 111.459 24.528C112.595 24.992 113.587 25.64 114.435 26.472C115.283 27.288 115.939 28.256 116.403 29.376C116.883 30.496 117.123 31.72 117.123 33.048C117.123 34.36 116.883 35.584 116.403 36.72C115.923 37.84 115.259 38.816 114.411 39.648C113.563 40.48 112.571 41.128 111.435 41.592C110.315 42.056 109.091 42.288 107.763 42.288ZM107.763 39.312C108.643 39.312 109.451 39.16 110.187 38.856C110.923 38.536 111.563 38.096 112.107 37.536C112.667 36.976 113.091 36.312 113.379 35.544C113.683 34.776 113.835 33.944 113.835 33.048C113.835 32.152 113.683 31.328 113.379 30.576C113.091 29.808 112.667 29.144 112.107 28.584C111.563 28.008 110.923 27.568 110.187 27.264C109.451 26.96 108.643 26.808 107.763 26.808C106.899 26.808 106.099 26.96 105.363 27.264C104.627 27.568 103.979 28.008 103.419 28.584C102.875 29.144 102.451 29.808 102.147 30.576C101.843 31.328 101.691 32.152 101.691 33.048C101.691 33.944 101.843 34.776 102.147 35.544C102.451 36.312 102.875 36.976 103.419 37.536C103.979 38.096 104.627 38.536 105.363 38.856C106.099 39.16 106.899 39.312 107.763 39.312ZM122.827 42L128.995 24.12H133.219L139.387 42H135.835L134.562 38.16H127.651L126.355 42H122.827ZM128.587 35.28H133.627L130.651 26.376H131.563L128.587 35.28ZM146.98 47.28C146.004 47.28 145.1 47.12 144.268 46.8C143.436 46.48 142.716 46.032 142.108 45.456C141.516 44.896 141.084 44.232 140.812 43.464L143.74 42.36C143.932 42.968 144.308 43.456 144.868 43.824C145.444 44.208 146.148 44.4 146.98 44.4C147.62 44.4 148.18 44.28 148.66 44.04C149.156 43.8 149.54 43.448 149.812 42.984C150.084 42.536 150.22 41.992 150.22 41.352V38.376L150.82 39.096C150.372 39.88 149.772 40.472 149.02 40.872C148.268 41.272 147.412 41.472 146.452 41.472C145.236 41.472 144.148 41.192 143.188 40.632C142.228 40.072 141.476 39.304 140.932 38.328C140.388 37.352 140.116 36.256 140.116 35.04C140.116 33.808 140.388 32.712 140.932 31.752C141.476 30.792 142.22 30.04 143.164 29.496C144.108 28.936 145.18 28.656 146.38 28.656C147.356 28.656 148.212 28.864 148.948 29.28C149.7 29.68 150.324 30.264 150.82 31.032L150.388 31.824V28.944H153.364V41.352C153.364 42.488 153.084 43.504 152.524 44.4C151.98 45.296 151.228 46 150.268 46.512C149.324 47.024 148.228 47.28 146.98 47.28ZM146.836 38.568C147.508 38.568 148.092 38.424 148.588 38.136C149.1 37.832 149.5 37.416 149.788 36.888C150.076 36.36 150.22 35.752 150.22 35.064C150.22 34.392 150.068 33.792 149.764 33.264C149.476 32.72 149.076 32.296 148.564 31.992C148.068 31.688 147.492 31.536 146.836 31.536C146.18 31.536 145.588 31.688 145.06 31.992C144.532 32.296 144.116 32.72 143.812 33.264C143.524 33.792 143.38 34.392 143.38 35.064C143.38 35.736 143.524 36.336 143.812 36.864C144.116 37.392 144.524 37.808 145.036 38.112C145.564 38.416 146.164 38.568 146.836 38.568ZM162.492 42.288C161.148 42.288 159.972 41.984 158.964 41.376C157.956 40.768 157.172 39.944 156.612 38.904C156.052 37.864 155.772 36.712 155.772 35.448C155.772 34.136 156.052 32.976 156.612 31.968C157.188 30.944 157.964 30.136 158.94 29.544C159.932 28.952 161.036 28.656 162.252 28.656C163.276 28.656 164.172 28.824 164.94 29.16C165.724 29.496 166.388 29.96 166.932 30.552C167.476 31.144 167.892 31.824 168.18 32.592C168.468 33.344 168.612 34.16 168.612 35.04C168.612 35.264 168.596 35.496 168.564 35.736C168.548 35.976 168.508 36.184 168.444 36.36H158.364V33.96H166.668L165.18 35.088C165.324 34.352 165.284 33.696 165.06 33.12C164.852 32.544 164.5 32.088 164.004 31.752C163.524 31.416 162.94 31.248 162.252 31.248C161.596 31.248 161.012 31.416 160.5 31.752C159.988 32.072 159.596 32.552 159.324 33.192C159.068 33.816 158.972 34.576 159.036 35.472C158.972 36.272 159.076 36.984 159.348 37.608C159.636 38.216 160.052 38.688 160.596 39.024C161.156 39.36 161.796 39.528 162.516 39.528C163.236 39.528 163.844 39.376 164.34 39.072C164.852 38.768 165.252 38.36 165.54 37.848L168.084 39.096C167.828 39.72 167.428 40.272 166.884 40.752C166.34 41.232 165.692 41.608 164.94 41.88C164.204 42.152 163.388 42.288 162.492 42.288ZM170.995 42V28.944H173.947V31.512L173.707 31.056C174.011 30.272 174.507 29.68 175.195 29.28C175.899 28.864 176.715 28.656 177.643 28.656C178.603 28.656 179.451 28.864 180.187 29.28C180.939 29.696 181.523 30.28 181.939 31.032C182.355 31.768 182.563 32.624 182.563 33.6V42H179.419V34.344C179.419 33.768 179.307 33.272 179.083 32.856C178.859 32.44 178.547 32.12 178.147 31.896C177.763 31.656 177.307 31.536 176.779 31.536C176.267 31.536 175.811 31.656 175.411 31.896C175.011 32.12 174.699 32.44 174.475 32.856C174.251 33.272 174.139 33.768 174.139 34.344V42H170.995ZM191.51 42.288C190.214 42.288 189.046 41.992 188.006 41.4C186.982 40.792 186.174 39.976 185.582 38.952C184.99 37.912 184.694 36.744 184.694 35.448C184.694 34.152 184.99 32.992 185.582 31.968C186.174 30.944 186.982 30.136 188.006 29.544C189.046 28.952 190.214 28.656 191.51 28.656C192.438 28.656 193.302 28.824 194.102 29.16C194.902 29.48 195.59 29.928 196.166 30.504C196.758 31.064 197.182 31.736 197.438 32.52L194.678 33.72C194.438 33.064 194.03 32.536 193.454 32.136C192.894 31.736 192.246 31.536 191.51 31.536C190.822 31.536 190.206 31.704 189.662 32.04C189.134 32.376 188.718 32.84 188.414 33.432C188.11 34.024 187.958 34.704 187.958 35.472C187.958 36.24 188.11 36.92 188.414 37.512C188.718 38.104 189.134 38.568 189.662 38.904C190.206 39.24 190.822 39.408 191.51 39.408C192.262 39.408 192.918 39.208 193.478 38.808C194.038 38.408 194.438 37.872 194.678 37.2L197.438 38.448C197.182 39.184 196.766 39.848 196.19 40.44C195.614 41.016 194.926 41.472 194.126 41.808C193.326 42.128 192.454 42.288 191.51 42.288ZM201.407 47.304C201.055 47.304 200.711 47.272 200.375 47.208C200.039 47.16 199.735 47.072 199.463 46.944V44.304C199.671 44.352 199.919 44.4 200.207 44.448C200.511 44.496 200.791 44.52 201.047 44.52C201.767 44.52 202.287 44.352 202.607 44.016C202.943 43.68 203.239 43.24 203.495 42.696L204.359 40.68L204.311 43.32L198.623 28.944H202.007L205.991 39.552H204.791L208.751 28.944H212.159L206.471 43.32C206.135 44.168 205.727 44.888 205.247 45.48C204.767 46.072 204.207 46.52 203.567 46.824C202.943 47.144 202.223 47.304 201.407 47.304Z" fill="#092243"/>
</svg>
