<svg width="64" height="64" viewBox="0 0 64 64" fill="none" xmlns="http://www.w3.org/2000/svg">
<rect width="64" height="64" fill="white"/>
<path fill-rule="evenodd" clip-rule="evenodd" d="M32 39C38.6274 39 44 33.6274 44 27C44 20.3726 38.6274 15 32 15C25.3726 15 20 20.3726 20 27C20 33.6274 25.3726 39 32 39ZM32 32.4C29.0177 32.4 26.6 29.9823 26.6 27C26.6 24.0177 29.0177 21.6 32 21.6C34.9823 21.6 37.4 24.0177 37.4 27C37.4 29.9823 34.9823 32.4 32 32.4ZM40.4853 46.4853C42.7357 44.2348 44 41.1826 44 38H37.4C37.4 39.4322 36.8311 40.8057 35.8184 41.8184C34.8057 42.8311 33.4322 43.4 32 43.4C30.5678 43.4 29.1943 42.8311 28.1816 41.8184C27.1689 40.8057 26.6 39.4322 26.6 38L20 38C20 41.1826 21.2643 44.2348 23.5147 46.4853C25.7652 48.7357 28.8174 50 32 50C35.1826 50 38.2348 48.7357 40.4853 46.4853Z" fill="#1777F7"/>
</svg>
