<svg width="145" height="40" viewBox="0 0 145 40" fill="none" xmlns="http://www.w3.org/2000/svg">
<path fill-rule="evenodd" clip-rule="evenodd" d="M20.0001 25.1429C24.734 25.1429 28.5716 21.3053 28.5716 16.5714C28.5716 11.8376 24.734 8 20.0001 8C15.2663 8 11.4287 11.8376 11.4287 16.5714C11.4287 21.3053 15.2663 25.1429 20.0001 25.1429ZM20.0001 20.4286C17.8699 20.4286 16.143 18.7017 16.143 16.5714C16.143 14.4412 17.8699 12.7143 20.0001 12.7143C22.1304 12.7143 23.8573 14.4412 23.8573 16.5714C23.8573 18.7017 22.1304 20.4286 20.0001 20.4286ZM26.0611 30.4895C27.6685 28.882 28.5716 26.7019 28.5716 24.4286L23.8573 24.4286C23.8573 25.4515 23.4509 26.4326 22.7276 27.156C22.0042 27.8793 21.0231 28.2857 20.0001 28.2857C18.9772 28.2857 17.9961 27.8793 17.2727 27.156C16.5494 26.4326 16.143 25.4515 16.143 24.4286L11.4287 24.4286C11.4287 26.7019 12.3318 28.882 13.9392 30.4895C15.5467 32.0969 17.7269 33 20.0001 33C22.2734 33 24.4536 32.0969 26.0611 30.4895Z" fill="#1777F7"/>
<path d="M61.744 27.192C60.8267 27.192 60.0107 27 59.296 26.616C58.592 26.232 58.0373 25.704 57.632 25.032C57.2267 24.36 57.024 23.5973 57.024 22.744V15.08H59.2V22.632C59.2 23.1227 59.3067 23.5653 59.52 23.96C59.744 24.3547 60.048 24.664 60.432 24.888C60.816 25.1013 61.2533 25.208 61.744 25.208C62.2453 25.208 62.6827 25.1013 63.056 24.888C63.44 24.664 63.7387 24.3547 63.952 23.96C64.176 23.5653 64.288 23.1227 64.288 22.632V15.08H66.464V22.744C66.464 23.5973 66.2613 24.36 65.856 25.032C65.4507 25.704 64.8907 26.232 64.176 26.616C63.472 27 62.6613 27.192 61.744 27.192ZM74.5084 27.192C73.6337 27.192 72.8177 27.0373 72.0604 26.728C71.303 26.4187 70.6417 25.9867 70.0764 25.432C69.511 24.8773 69.0684 24.2267 68.7484 23.48C68.439 22.7227 68.2844 21.9067 68.2844 21.032C68.2844 20.1467 68.439 19.3307 68.7484 18.584C69.0577 17.8373 69.495 17.1867 70.0604 16.632C70.6257 16.0773 71.287 15.6507 72.0444 15.352C72.8017 15.0427 73.623 14.888 74.5084 14.888C75.3937 14.888 76.215 15.0427 76.9724 15.352C77.7297 15.6613 78.391 16.0933 78.9564 16.648C79.5217 17.192 79.959 17.8373 80.2684 18.584C80.5884 19.3307 80.7484 20.1467 80.7484 21.032C80.7484 21.9067 80.5884 22.7227 80.2684 23.48C79.9484 24.2267 79.5057 24.8773 78.9404 25.432C78.375 25.9867 77.7137 26.4187 76.9564 26.728C76.2097 27.0373 75.3937 27.192 74.5084 27.192ZM74.5084 25.208C75.095 25.208 75.6337 25.1067 76.1244 24.904C76.615 24.6907 77.0417 24.3973 77.4044 24.024C77.7777 23.6507 78.0604 23.208 78.2524 22.696C78.455 22.184 78.5564 21.6293 78.5564 21.032C78.5564 20.4347 78.455 19.8853 78.2524 19.384C78.0604 18.872 77.7777 18.4293 77.4044 18.056C77.0417 17.672 76.615 17.3787 76.1244 17.176C75.6337 16.9733 75.095 16.872 74.5084 16.872C73.9324 16.872 73.399 16.9733 72.9084 17.176C72.4177 17.3787 71.9857 17.672 71.6124 18.056C71.2497 18.4293 70.967 18.872 70.7644 19.384C70.5617 19.8853 70.4604 20.4347 70.4604 21.032C70.4604 21.6293 70.5617 22.184 70.7644 22.696C70.967 23.208 71.2497 23.6507 71.6124 24.024C71.9857 24.3973 72.4177 24.6907 72.9084 24.904C73.399 25.1067 73.9324 25.208 74.5084 25.208ZM84.551 27L88.663 15.08H91.479L95.591 27H93.223L92.375 24.44H87.767L86.903 27H84.551ZM88.391 22.52H91.751L89.767 16.584H90.375L88.391 22.52ZM100.653 30.52C100.002 30.52 99.3998 30.4133 98.8451 30.2C98.2905 29.9867 97.8105 29.688 97.4051 29.304C97.0105 28.9307 96.7225 28.488 96.5411 27.976L98.4931 27.24C98.6211 27.6453 98.8718 27.9707 99.2451 28.216C99.6291 28.472 100.098 28.6 100.653 28.6C101.08 28.6 101.453 28.52 101.773 28.36C102.104 28.2 102.36 27.9653 102.541 27.656C102.722 27.3573 102.813 26.9947 102.813 26.568V24.584L103.213 25.064C102.914 25.5867 102.514 25.9813 102.013 26.248C101.512 26.5147 100.941 26.648 100.301 26.648C99.4905 26.648 98.7651 26.4613 98.1251 26.088C97.4851 25.7147 96.9838 25.2027 96.6211 24.552C96.2585 23.9013 96.0771 23.1707 96.0771 22.36C96.0771 21.5387 96.2585 20.808 96.6211 20.168C96.9838 19.528 97.4798 19.0267 98.1091 18.664C98.7385 18.2907 99.4531 18.104 100.253 18.104C100.904 18.104 101.474 18.2427 101.965 18.52C102.466 18.7867 102.882 19.176 103.213 19.688L102.925 20.216V18.296H104.909V26.568C104.909 27.3253 104.722 28.0027 104.349 28.6C103.986 29.1973 103.485 29.6667 102.845 30.008C102.216 30.3493 101.485 30.52 100.653 30.52ZM100.557 24.712C101.005 24.712 101.394 24.616 101.725 24.424C102.066 24.2213 102.333 23.944 102.525 23.592C102.717 23.24 102.813 22.8347 102.813 22.376C102.813 21.928 102.712 21.528 102.509 21.176C102.317 20.8133 102.05 20.5307 101.709 20.328C101.378 20.1253 100.994 20.024 100.557 20.024C100.12 20.024 99.7251 20.1253 99.3731 20.328C99.0211 20.5307 98.7438 20.8133 98.5411 21.176C98.3491 21.528 98.2531 21.928 98.2531 22.376C98.2531 22.824 98.3491 23.224 98.5411 23.576C98.7438 23.928 99.0158 24.2053 99.3571 24.408C99.7091 24.6107 100.109 24.712 100.557 24.712ZM110.995 27.192C110.099 27.192 109.315 26.9893 108.643 26.584C107.971 26.1787 107.448 25.6293 107.075 24.936C106.701 24.2427 106.515 23.4747 106.515 22.632C106.515 21.7573 106.701 20.984 107.075 20.312C107.459 19.6293 107.976 19.0907 108.627 18.696C109.288 18.3013 110.024 18.104 110.835 18.104C111.517 18.104 112.115 18.216 112.627 18.44C113.149 18.664 113.592 18.9733 113.955 19.368C114.317 19.7627 114.595 20.216 114.787 20.728C114.979 21.2293 115.075 21.7733 115.075 22.36C115.075 22.5093 115.064 22.664 115.043 22.824C115.032 22.984 115.005 23.1227 114.963 23.24H108.243V21.64H113.779L112.787 22.392C112.883 21.9013 112.856 21.464 112.707 21.08C112.568 20.696 112.333 20.392 112.003 20.168C111.683 19.944 111.293 19.832 110.835 19.832C110.397 19.832 110.008 19.944 109.667 20.168C109.325 20.3813 109.064 20.7013 108.883 21.128C108.712 21.544 108.648 22.0507 108.691 22.648C108.648 23.1813 108.717 23.656 108.899 24.072C109.091 24.4773 109.368 24.792 109.731 25.016C110.104 25.24 110.531 25.352 111.011 25.352C111.491 25.352 111.896 25.2507 112.227 25.048C112.568 24.8453 112.835 24.5733 113.027 24.232L114.723 25.064C114.552 25.48 114.285 25.848 113.923 26.168C113.56 26.488 113.128 26.7387 112.627 26.92C112.136 27.1013 111.592 27.192 110.995 27.192ZM116.664 27V18.296H118.632V20.008L118.472 19.704C118.674 19.1813 119.005 18.7867 119.464 18.52C119.933 18.2427 120.477 18.104 121.096 18.104C121.736 18.104 122.301 18.2427 122.792 18.52C123.293 18.7973 123.682 19.1867 123.96 19.688C124.237 20.1787 124.376 20.7493 124.376 21.4V27H122.28V21.896C122.28 21.512 122.205 21.1813 122.056 20.904C121.906 20.6267 121.698 20.4133 121.432 20.264C121.176 20.104 120.872 20.024 120.52 20.024C120.178 20.024 119.874 20.104 119.608 20.264C119.341 20.4133 119.133 20.6267 118.984 20.904C118.834 21.1813 118.76 21.512 118.76 21.896V27H116.664ZM130.34 27.192C129.476 27.192 128.697 26.9947 128.004 26.6C127.321 26.1947 126.783 25.6507 126.388 24.968C125.993 24.2747 125.796 23.496 125.796 22.632C125.796 21.768 125.993 20.9947 126.388 20.312C126.783 19.6293 127.321 19.0907 128.004 18.696C128.697 18.3013 129.476 18.104 130.34 18.104C130.959 18.104 131.535 18.216 132.068 18.44C132.601 18.6533 133.06 18.952 133.444 19.336C133.839 19.7093 134.121 20.1573 134.292 20.68L132.452 21.48C132.292 21.0427 132.02 20.6907 131.636 20.424C131.263 20.1573 130.831 20.024 130.34 20.024C129.881 20.024 129.471 20.136 129.108 20.36C128.756 20.584 128.479 20.8933 128.276 21.288C128.073 21.6827 127.972 22.136 127.972 22.648C127.972 23.16 128.073 23.6133 128.276 24.008C128.479 24.4027 128.756 24.712 129.108 24.936C129.471 25.16 129.881 25.272 130.34 25.272C130.841 25.272 131.279 25.1387 131.652 24.872C132.025 24.6053 132.292 24.248 132.452 23.8L134.292 24.632C134.121 25.1227 133.844 25.5653 133.46 25.96C133.076 26.344 132.617 26.648 132.084 26.872C131.551 27.0853 130.969 27.192 130.34 27.192ZM136.938 30.536C136.704 30.536 136.474 30.5147 136.25 30.472C136.026 30.44 135.824 30.3813 135.642 30.296V28.536C135.781 28.568 135.946 28.6 136.138 28.632C136.341 28.664 136.528 28.68 136.698 28.68C137.178 28.68 137.525 28.568 137.738 28.344C137.962 28.12 138.16 27.8267 138.33 27.464L138.906 26.12L138.874 27.88L135.082 18.296H137.338L139.994 25.368H139.194L141.834 18.296H144.106L140.314 27.88C140.09 28.4453 139.818 28.9253 139.498 29.32C139.178 29.7147 138.805 30.0133 138.378 30.216C137.962 30.4293 137.482 30.536 136.938 30.536Z" fill="#092243"/>
</svg>
